<svg id="Layer_5" enable-background="new 0 0 64 64" height="512" viewBox="0 0 64 64" width="512" xmlns="http://www.w3.org/2000/svg">
	<path d="m45.194 11.756c-.06-.298-.1-.598-.129-.903-.014-.147-.038-.291-.044-.44l-12.021 3.278v2.073l12.334-3.363c-.059-.211-.097-.429-.14-.645z" />
	<path d="m29.539 24.267c.473.866.84 1.797 1.089 2.775l16.811 16.811c.014-.015.03-.027.044-.042.177-.186.362-.363.553-.533.059-.053.115-.108.175-.159.171-.144.35-.277.531-.408.074-.054.141-.116.217-.167l-18.854-18.853z" />
	<path d="m45.833 26.243c.121-.262.254-.517.399-.765.027-.046.055-.09.082-.135.145-.239.301-.47.467-.693.015-.02.027-.043.042-.063l-14.435-6.662-.831.416c-.11.414-.261.813-.411 1.213l14.649 6.761c.011-.025.026-.048.038-.072z" />
	<circle cx="54" cy="9" r="2" />
	<path d="m51.034 11.659c-.636-.708-1.034-1.634-1.034-2.659 0-2.206 1.794-4 4-4s4 1.794 4 4c0 1.025-.398 1.951-1.034 2.659 1.108.517 2.055 1.33 2.763 2.351.798-1.137 1.271-2.518 1.271-4.01 0-3.859-3.141-7-7-7s-7 3.141-7 7c0 1.492.473 2.873 1.271 4.01.709-1.021 1.656-1.833 2.763-2.351z" />
	<path d="m49.679 15.496c1.191.939 2.69 1.504 4.321 1.504s3.13-.565 4.321-1.504c-.885-1.535-2.513-2.496-4.321-2.496s-3.436.961-4.321 2.496z" />
	<circle cx="54" cy="29" r="2" />
	<path d="m54 23c-3.859 0-7 3.141-7 7 0 1.492.473 2.873 1.271 4.01.708-1.021 1.655-1.833 2.763-2.351-.636-.708-1.034-1.634-1.034-2.659 0-2.206 1.794-4 4-4s4 1.794 4 4c0 1.025-.398 1.951-1.034 2.659 1.108.517 2.055 1.33 2.763 2.351.798-1.137 1.271-2.518 1.271-4.01 0-3.859-3.141-7-7-7z" />
	<path d="m49.679 35.496c1.191.939 2.69 1.504 4.321 1.504s3.13-.565 4.321-1.504c-.885-1.535-2.513-2.496-4.321-2.496s-3.436.961-4.321 2.496z" />
	<path d="m54 43c-3.859 0-7 3.141-7 7 0 1.492.473 2.873 1.271 4.01.708-1.021 1.655-1.833 2.763-2.351-.636-.708-1.034-1.634-1.034-2.659 0-2.206 1.794-4 4-4s4 1.794 4 4c0 1.025-.398 1.951-1.034 2.659 1.108.517 2.055 1.33 2.763 2.351.798-1.137 1.271-2.518 1.271-4.01 0-3.859-3.141-7-7-7z" />
	<circle cx="54" cy="49" r="2" />
	<path d="m54 53c-1.808 0-3.436.961-4.321 2.496 1.191.939 2.69 1.504 4.321 1.504s3.13-.565 4.321-1.504c-.885-1.535-2.513-2.496-4.321-2.496z" />
	<path d="m21 45.764v-.676c-.51.312-1.046.591-1.606.831l-.394.169-.394-.169c-.561-.24-1.096-.52-1.606-.831v.676l2 4z" />
	<path d="m27 34.384c0 .892-.098 1.767-.279 2.616h.279c1.103 0 2-.897 2-2s-.897-2-2-2z" />
	<path d="m15.149 47.283.652 5.866 1.931-1.448-2.256-4.512z" />
	<path d="m22.851 47.283-.327-.094-2.256 4.512 1.931 1.448z" />
	<path d="m8.279 17.432c.274 1.212.753 2.364 1.422 3.426l.253.399-.417 1.252.059.059c.437-.552.923-1.061 1.449-1.528-1.323-1.735-2.045-3.842-2.045-6.04 0-5.514 4.486-10 10-10s10 4.486 10 10c0 2.198-.722 4.305-2.045 6.04.526.467 1.012.976 1.449 1.528l.059-.059-.417-1.252.253-.399c.669-1.062 1.147-2.214 1.422-3.426l.104-.462 1.175-.588v-2.764l-1.175-.588-.104-.462c-.274-1.212-.753-2.364-1.422-3.426l-.253-.399.417-1.251-1.955-1.955-1.251.417-.399-.253c-1.062-.669-2.214-1.147-3.426-1.422l-.462-.104-.588-1.175h-2.764l-.588 1.175-.462.104c-1.212.274-2.364.753-3.426 1.422l-.399.253-1.251-.417-1.955 1.955.417 1.251-.253.4c-.669 1.062-1.147 2.214-1.422 3.426l-.104.461-1.175.588v2.764l1.175.588z" />
	<path d="m29 30c0-5.514-4.486-10-10-10s-10 4.486-10 10v1.556c.591-.344 1.268-.556 2-.556h1.395c2.16 0 4.253-.634 6.051-1.832l.554-.37.555.37c1.798 1.198 3.89 1.832 6.05 1.832h1.395c.732 0 1.409.212 2 .556z" />
	<path d="m29.924 49.304-5.122-1.464-1.001 9.01-4.801-3.6-4.801 3.601-1.001-9.01-5.122 1.464c-2.988.852-5.076 3.621-5.076 6.729v4.966h4v-8h2v8h20v-8h2v8h4v-4.966c0-3.108-2.088-5.877-5.076-6.73zm-9.924 7.696h-2v-2h2z" />
	<path d="m25 32.98c-2.122-.099-4.175-.71-6-1.798-1.825 1.088-3.878 1.699-6 1.798v1.404c0 4.081 2.341 7.771 6 9.519 3.659-1.747 6-5.438 6-9.519z" />
	<path d="m22.754 18.61c.923.305 1.793.722 2.602 1.23.86-1.124 1.397-2.445 1.573-3.84h-3.951c-.032.897-.107 1.776-.224 2.61z" />
	<path d="m26.411 12h-3.579c.074.657.125 1.327.149 2h3.95c-.088-.698-.264-1.369-.52-2z" />
	<path d="m19 7c-.312 0-.983 1.023-1.462 3h2.924c-.479-1.977-1.15-3-1.462-3z" />
	<path d="m19 18c.614 0 1.212.061 1.802.15.09-.689.149-1.413.177-2.15h-3.958c.029.737.087 1.461.177 2.15.59-.089 1.188-.15 1.802-.15z" />
	<path d="m21.764 7.502c.312.727.56 1.579.752 2.498h2.719c-.901-1.121-2.098-1.99-3.471-2.498z" />
	<path d="m11.07 16c.176 1.395.713 2.716 1.573 3.84.809-.508 1.679-.925 2.602-1.23-.116-.834-.192-1.713-.224-2.61z" />
	<path d="m16.236 7.502c-1.373.508-2.57 1.377-3.471 2.498h2.719c.193-.919.44-1.771.752-2.498z" />
	<path d="m11.069 14h3.95c.024-.673.075-1.343.149-2h-3.579c-.256.631-.432 1.302-.52 2z" />
	<path d="m17.019 14h3.961c-.027-.723-.085-1.386-.161-2h-3.639c-.076.614-.134 1.277-.161 2z" />
	<path d="m9 35c0 1.103.897 2 2 2h.279c-.181-.849-.279-1.724-.279-2.616v-1.384c-1.103 0-2 .897-2 2z" />
</svg>
